<svg width="95" height="35" viewBox="0 0 95 35" fill="none" xmlns="http://www.w3.org/2000/svg">
    <g>
        <path
            d="M40.7976 13.3835H42.0602C42.1956 13.3835 42.3066 13.4166 42.3918 13.4806C42.4769 13.546 42.5411 13.6301 42.5844 13.7341L44.5638 18.8004C44.6302 18.965 44.693 19.1454 44.753 19.3424C44.813 19.5394 44.8703 19.7474 44.9247 19.9657C45.014 19.5256 45.1243 19.1365 45.2562 18.7997L47.2294 13.7334C47.2643 13.6445 47.3257 13.5639 47.4158 13.4923C47.5051 13.4193 47.6147 13.3828 47.7473 13.3828H49.0099L45.6108 21.6882H44.196L40.7969 13.3828L40.7976 13.3835Z"
            fill="#03233A" />
        <path
            d="M57.3999 21.6902H56.1889C56.0528 21.6902 55.9418 21.6564 55.8546 21.5889C55.7666 21.5228 55.7038 21.4395 55.6654 21.3396L55.0365 19.6453H51.5501L50.922 21.3396C50.8906 21.4278 50.8291 21.5091 50.7384 21.5807C50.6477 21.6537 50.536 21.6902 50.4041 21.6902H49.1875L52.4931 13.3848H54.0943L57.4006 21.6902H57.3999ZM51.9515 18.5537H54.6345L53.6106 15.7912C53.5638 15.6686 53.5129 15.524 53.4563 15.3573C53.4005 15.1906 53.3446 15.0102 53.2902 14.8153C53.2365 15.0109 53.182 15.192 53.1304 15.36C53.078 15.5295 53.0271 15.6762 52.9761 15.8022L51.9522 18.5537H51.9515Z"
            fill="#03233A" />
        <path
            d="M60.9803 18.4449V21.6902H59.4141V13.3848H61.9819C62.5563 13.3848 63.0477 13.4426 63.4567 13.5597C63.8657 13.6768 64.2022 13.84 64.4639 14.0508C64.7257 14.2622 64.9176 14.5136 65.0397 14.8063C65.1619 15.0997 65.2233 15.4227 65.2233 15.7747C65.2233 16.0543 65.1814 16.3181 65.0984 16.5674C65.0153 16.816 64.8946 17.0412 64.7375 17.2451C64.5805 17.4483 64.3857 17.6253 64.1547 17.7789C63.9244 17.9325 63.6612 18.0544 63.3667 18.146C63.5649 18.2575 63.7352 18.416 63.879 18.6226L65.9862 21.6902H64.5777C64.4416 21.6902 64.3264 21.6633 64.2308 21.6096C64.1359 21.5566 64.0556 21.4794 63.9893 21.3796L62.2192 18.7211C62.1536 18.6212 62.081 18.5503 62.0015 18.5082C61.9219 18.4662 61.8046 18.4456 61.649 18.4456H60.9803V18.4449ZM60.9803 17.336H61.9582C62.2527 17.336 62.5103 17.2995 62.7294 17.2265C62.9486 17.1535 63.1294 17.0536 63.2704 16.9255C63.4128 16.7967 63.5189 16.6452 63.588 16.4682C63.6578 16.2926 63.6933 16.0991 63.6933 15.8883C63.6933 15.4668 63.5524 15.1431 63.2711 14.9172C62.9898 14.692 62.5605 14.579 61.9826 14.579H60.981V17.336H60.9803Z"
            fill="#03233A" />
        <path
            d="M72.5879 14.895C72.5453 14.979 72.4957 15.0382 72.4399 15.0727C72.3834 15.1071 72.317 15.1243 72.2389 15.1243C72.1607 15.1243 72.0741 15.0954 71.9764 15.0355C71.8801 14.9762 71.7649 14.9101 71.6337 14.8371C71.5011 14.7641 71.3476 14.6987 71.1703 14.6388C70.9944 14.5795 70.7857 14.5499 70.5449 14.5499C70.3271 14.5499 70.1387 14.5761 69.9774 14.6277C69.8162 14.6794 69.6801 14.751 69.5698 14.8426C69.4588 14.9349 69.3765 15.0444 69.3227 15.1739C69.2676 15.302 69.2411 15.4425 69.2411 15.5954C69.2411 15.791 69.2962 15.9535 69.4072 16.0837C69.5168 16.2146 69.664 16.3261 69.8469 16.4177C70.0291 16.5093 70.2364 16.5913 70.4695 16.6643C70.7026 16.7373 70.9406 16.8151 71.1828 16.8971C71.425 16.9791 71.6623 17.0748 71.8955 17.1843C72.1286 17.2938 72.3359 17.4309 72.5188 17.5975C72.7009 17.7649 72.8475 17.9688 72.9585 18.2098C73.0681 18.4509 73.1246 18.7436 73.1246 19.0887C73.1246 19.4633 73.059 19.8153 72.9292 20.1424C72.7993 20.4696 72.6088 20.7554 72.3589 20.9985C72.1077 21.2416 71.8026 21.4331 71.4418 21.5722C71.0809 21.7127 70.6677 21.7816 70.2015 21.7816C69.9342 21.7816 69.6696 21.7561 69.4107 21.7038C69.1503 21.6521 68.9012 21.5784 68.6624 21.4834C68.4237 21.387 68.2011 21.2733 67.9938 21.1383C67.7865 21.0047 67.6008 20.8552 67.4375 20.6906L67.8912 19.9496C67.9338 19.8965 67.9847 19.8511 68.0454 19.8153C68.1055 19.7788 68.1725 19.7609 68.2465 19.7609C68.3428 19.7609 68.4482 19.8001 68.5612 19.8786C68.6729 19.9571 68.8069 20.0439 68.9598 20.1397C69.1126 20.2361 69.2934 20.3229 69.5007 20.4014C69.708 20.4799 69.9572 20.5191 70.2482 20.5191C70.6943 20.5191 71.0404 20.4145 71.2847 20.2058C71.529 19.9971 71.6512 19.6975 71.6512 19.3063C71.6512 19.0887 71.596 18.9096 71.4851 18.7725C71.3741 18.6341 71.2282 18.5191 71.0453 18.4247C70.8632 18.331 70.6559 18.2518 70.4227 18.1864C70.1896 18.1217 69.953 18.0507 69.7122 17.9743C69.4714 17.8978 69.2348 17.8062 69.0024 17.6988C68.7692 17.5913 68.5619 17.4522 68.3791 17.2794C68.1969 17.1072 68.0503 16.8923 67.9393 16.6333C67.8298 16.375 67.7732 16.0562 67.7732 15.6767C67.7732 15.375 67.8346 15.0795 67.9568 14.7923C68.0789 14.5051 68.2569 14.251 68.4921 14.0285C68.7274 13.8061 69.0149 13.6284 69.3562 13.4948C69.6982 13.3605 70.0877 13.293 70.526 13.293C71.0237 13.293 71.4809 13.3694 71.8997 13.523C72.3191 13.6766 72.6765 13.8901 72.971 14.1663L72.5865 14.8963L72.5879 14.895Z"
            fill="#03233A" />
        <path d="M77.1812 21.6902H75.6094V13.3848H77.1812V21.6902Z" fill="#03233A" />
        <path d="M86.1036 13.3838V14.6531H83.5713V21.6892H82.0051V14.6531H79.4609V13.3838H86.1036Z" fill="#03233A" />
        <path
            d="M91.9293 18.4608V21.6889H90.3645V18.4608L87.2969 13.3835H88.6761C88.8115 13.3835 88.9197 13.4166 88.9992 13.4806C89.0788 13.546 89.1451 13.628 89.2003 13.7272L90.7428 16.5021C90.8321 16.6667 90.9096 16.823 90.9759 16.9704C91.0415 17.1171 91.1022 17.2624 91.156 17.4043C91.2062 17.2583 91.2642 17.1116 91.3277 16.9649C91.3919 16.8175 91.4687 16.6632 91.558 16.5021L93.0894 13.7272C93.1319 13.6432 93.1962 13.5646 93.282 13.4923C93.3672 13.4193 93.4761 13.3828 93.608 13.3828H94.9934L91.9314 18.4601L91.9293 18.4608Z"
            fill="#03233A" />
        <path fill-rule="evenodd" clip-rule="evenodd"
            d="M14.0181 34.4359C10.1129 32.8883 6.77938 30.2002 4.4635 26.7325C1.51944 22.4182 -0.036348 17.3271 0.000644694 12.1258V1.50419C-0.00144923 0.676335 0.676983 0.00275493 1.51595 0H30.0771C30.9161 0.00137746 31.5952 0.674269 31.5938 1.50213C31.5938 1.50213 31.5938 1.5035 31.5938 1.50419V12.1258C31.6315 17.3271 30.0757 22.4182 27.1309 26.7325C24.8151 30.2002 21.4822 32.8877 17.5764 34.4359L15.7979 35L14.0188 34.4359H14.0181Z"
            fill="#ABD1FF" />
        <path fill-rule="evenodd" clip-rule="evenodd"
            d="M14.5919 3.95703H4.76794C4.11185 3.95703 3.57929 4.48116 3.57859 5.12856V13.4064C3.55067 17.4644 4.77353 21.435 7.08592 24.7912C8.91112 27.4986 11.5299 29.593 14.5919 30.7949L15.99 31.2343V3.95703H14.5919Z"
            fill="#77B4F2" />
        <path fill-rule="evenodd" clip-rule="evenodd"
            d="M21.178 10.3243C21.8111 10.3243 22.3367 10.305 22.7548 10.2657V10.6707C22.3555 10.8436 22.0058 11.1094 21.7343 11.4462C21.3407 11.9325 21.0398 12.4848 20.8444 13.0765L16.4786 24.6237L15.7513 26.2195L15.054 24.6237L9.76545 11.9642C9.64191 11.5964 9.43182 11.263 9.15333 10.9903C8.96557 10.8091 8.72128 10.6962 8.46094 10.6693V10.2644C9.29013 10.3036 10.3413 10.3236 11.6151 10.3229C13.0243 10.3229 14.0727 10.3036 14.7595 10.2644V10.6693C14.3791 10.6638 14.0001 10.7258 13.642 10.8518C13.418 10.9503 13.2819 11.1783 13.3035 11.4194C13.3328 11.7472 13.4187 12.0682 13.5569 12.3677L17.2059 21.426L19.7591 14.7191C20.0829 13.9312 20.2777 13.0978 20.3356 12.2493C20.3754 11.8106 20.2141 11.3774 19.8952 11.0688C19.5204 10.7947 19.0625 10.6535 18.5962 10.6686V10.2637C19.5266 10.3029 20.3886 10.3229 21.1836 10.3222"
            fill="#03233A" />
    </g>

</svg>