<svg width="480" height="220" viewBox="0 0 400 150" fill="none" xmlns="http://www.w3.org/2000/svg">
    <circle cx="282.286" cy="-20.398" r="135.25" transform="rotate(18.3922 282.286 -20.398)" stroke="#C1C1C1"
        stroke-width="0.5" />
    <circle cx="282.28" cy="-20.3982" r="178.25" transform="rotate(18.3922 282.28 -20.3982)" stroke="#C1C1C1"
        stroke-width="0.5" />
    <circle cx="281.967" cy="-21.03" r="222.75" transform="rotate(18.3922 281.967 -21.03)" stroke="#C1C1C1"
        stroke-width="0.5" />
    <circle cx="282.287" cy="-20.3976" r="82.25" transform="rotate(18.3922 282.287 -20.3976)" stroke="#C1C1C1"
        stroke-width="0.5" />
    <path fill-rule="evenodd" clip-rule="evenodd"
        d="M277.816 108.505C267.618 104.634 260.428 97.6673 255.459 90.4425C248.53 80.5087 245 68.5103 245 56.254V31.4834C245 29.5482 246.569 28 248.53 28H315.47C317.431 28 319 29.5482 319 31.4834V56.383C319 68.5103 315.47 80.5087 308.541 90.5717C303.572 97.7965 296.381 104.634 286.184 108.634L282 109.924L277.816 108.505Z"
        fill="#ABD1FF" />
    <path fill-rule="evenodd" clip-rule="evenodd"
        d="M279.123 37.1611H256.113C254.544 37.1611 253.367 38.4513 253.367 39.8704V59.2224C253.367 68.7696 256.113 78.0584 261.604 85.9284C265.526 91.476 271.148 96.8944 279.123 99.9908L282.392 101.023V37.1611H279.123Z"
        fill="#77B4F2" />
    <path fill-rule="evenodd" clip-rule="evenodd"
        d="M294.553 52.1195C295.992 52.1195 297.299 52.1195 298.214 51.9905V52.8935C297.43 53.1516 296.645 53.7966 295.861 54.6998C295.076 55.6028 294.423 56.8931 293.769 58.5702L283.571 85.6629L281.871 89.4044L280.303 85.534L267.882 55.8609C267.49 54.8288 266.967 54.0546 266.444 53.5385C265.921 53.0226 265.398 52.7645 264.875 52.7645V51.8613C266.836 51.9905 269.32 51.9905 272.197 51.9905C275.073 51.9905 277.949 51.9905 279.518 51.8613V52.7645C278.342 52.7645 277.426 52.8935 276.903 53.1516C276.38 53.4095 276.119 53.7966 276.119 54.4417C276.119 55.0867 276.38 55.7317 276.773 56.6349L285.271 77.7931L291.285 62.4407C292.2 59.9893 292.592 58.0542 292.592 56.6349C292.592 55.2159 292.2 54.4417 291.546 53.9256C290.893 53.4095 289.847 53.0226 288.539 53.0226V52.1195C290.762 52.1195 292.723 52.1195 294.553 52.1195Z"
        fill="#03233A" />
    <path d="M313.436 93.7158H253.055V113.999H313.436V93.7158Z" fill="#C13030" />
    <path
        d="M279.734 108.879V98.7217H281.287V107.559H285.951V108.879H279.734ZM289.276 98.7217V108.879H287.723V98.7217H289.276ZM292.437 98.7217L295.302 106.994H295.418L298.282 98.7217H299.961L296.257 108.879H294.463L290.759 98.7217H292.437ZM301.447 108.879V98.7217H307.901V100.041H303V103.136H307.564V104.45H303V107.559H307.961V108.879H301.447Z"
        fill="white" />
    <mask id="mask0_184_3445" style="mask-type:luminance" maskUnits="userSpaceOnUse" x="257" y="97" width="20"
        height="14">
        <path d="M276.049 97.4951H257.523V110.44H276.049V97.4951Z" fill="white" />
    </mask>
    <g mask="url(#mask0_184_3445)">
        <mask id="mask1_184_3445" style="mask-type:luminance" maskUnits="userSpaceOnUse" x="257" y="97" width="20"
            height="14">
            <path d="M276.049 97.4951H257.523V110.44H276.049V97.4951Z" fill="white" />
        </mask>
        <g mask="url(#mask1_184_3445)">
            <mask id="mask2_184_3445" style="mask-type:luminance" maskUnits="userSpaceOnUse" x="257" y="94" width="20"
                height="20">
                <path d="M276.162 94.8545H257.523V113.246H276.162V94.8545Z" fill="white" />
            </mask>
            <g mask="url(#mask2_184_3445)">
                <path
                    d="M261.576 98.8414C261.66 98.7606 261.774 98.7161 261.891 98.7178C262.009 98.7195 262.121 98.7675 262.203 98.8507C262.292 98.9431 262.341 99.0662 262.339 99.1939C262.337 99.3216 262.284 99.4432 262.193 99.5331C260.988 100.736 260.313 102.36 260.315 104.052C260.315 105.882 261.088 107.533 262.331 108.705C262.379 108.749 262.418 108.802 262.445 108.86C262.472 108.919 262.486 108.982 262.488 109.047C262.49 109.111 262.48 109.175 262.456 109.235C262.433 109.296 262.398 109.351 262.353 109.398C262.273 109.479 262.163 109.527 262.048 109.53C261.933 109.534 261.821 109.493 261.736 109.416C260.992 108.729 260.4 107.898 259.995 106.975C259.59 106.052 259.382 105.057 259.383 104.052C259.383 102.016 260.222 100.173 261.576 98.8414ZM271.484 99.5331C271.392 99.443 271.34 99.3214 271.338 99.1937C271.336 99.0662 271.385 98.9431 271.474 98.8507C271.556 98.7677 271.668 98.7202 271.785 98.7185C271.903 98.7167 272.016 98.761 272.101 98.8414C272.796 99.5243 273.348 100.336 273.725 101.23C274.101 102.125 274.294 103.084 274.293 104.052C274.293 106.167 273.389 108.074 271.94 109.416C271.855 109.493 271.743 109.534 271.628 109.53C271.513 109.527 271.404 109.479 271.323 109.398C271.279 109.351 271.244 109.296 271.22 109.236C271.197 109.176 271.186 109.112 271.188 109.047C271.19 108.983 271.205 108.92 271.232 108.861C271.259 108.803 271.297 108.75 271.345 108.706C271.983 108.106 272.491 107.383 272.838 106.583C273.184 105.783 273.362 104.922 273.361 104.052C273.364 102.36 272.689 100.737 271.484 99.5331ZM263.233 100.456C263.317 100.378 263.428 100.336 263.542 100.339C263.657 100.341 263.766 100.389 263.845 100.471C264.039 100.662 264.019 100.977 263.828 101.17C263.069 101.942 262.644 102.976 262.644 104.052C262.644 105.238 263.151 106.309 263.962 107.063C264.167 107.254 264.195 107.579 263.995 107.777C263.918 107.856 263.813 107.903 263.703 107.907C263.592 107.912 263.484 107.875 263.4 107.803C262.869 107.329 262.444 106.75 262.154 106.104C261.863 105.458 261.713 104.759 261.713 104.052C261.712 103.383 261.846 102.72 262.107 102.103C262.368 101.486 262.751 100.926 263.233 100.456ZM269.848 101.17C269.657 100.977 269.638 100.662 269.831 100.471C269.91 100.389 270.019 100.341 270.134 100.339C270.249 100.336 270.36 100.378 270.443 100.456C270.925 100.926 271.308 101.486 271.57 102.103C271.831 102.72 271.965 103.383 271.964 104.052C271.964 104.759 271.814 105.458 271.523 106.104C271.233 106.751 270.808 107.33 270.277 107.804C270.193 107.876 270.084 107.913 269.973 107.908C269.862 107.903 269.757 107.856 269.68 107.776C269.481 107.579 269.509 107.254 269.714 107.063C270.13 106.677 270.462 106.21 270.688 105.692C270.915 105.174 271.032 104.616 271.032 104.052C271.032 102.976 270.607 101.942 269.848 101.17ZM266.838 102.902C266.529 102.902 266.233 103.023 266.014 103.239C265.796 103.455 265.673 103.747 265.673 104.052C265.673 104.357 265.796 104.649 266.014 104.865C266.233 105.08 266.529 105.201 266.838 105.201C267.147 105.201 267.443 105.08 267.662 104.865C267.88 104.649 268.003 104.357 268.003 104.052C268.003 103.747 267.88 103.455 267.662 103.239C267.443 103.023 267.147 102.902 266.838 102.902Z"
                    fill="white" />
                <path
                    d="M266.833 105.618C267.862 105.618 268.696 104.794 268.696 103.779C268.696 102.763 267.862 101.939 266.833 101.939C265.803 101.939 264.969 102.763 264.969 103.779C264.969 104.794 265.803 105.618 266.833 105.618Z"
                    fill="white" stroke="white" stroke-width="0.302003" />
            </g>
        </g>
    </g>
    <circle cx="386.5" cy="71.5" r="5.5" fill="#FFE178" />
    <circle cx="66.5" cy="33.5" r="5.5" fill="#FFD2D2" />
    <path d="M180.5 119L171 128L169 119H180.5Z" fill="#C1BBFF" />
</svg>